<?xml version="1.0" encoding="utf-8"?>
<!-- Generator: Adobe Illustrator 22.0.0, SVG Export Plug-In . SVG Version: 6.00 Build 0)  -->
<svg version="1.1" id="Слой_1" xmlns="http://www.w3.org/2000/svg" xmlns:xlink="http://www.w3.org/1999/xlink" x="0px" y="0px"
	 viewBox="0 0 63.3 63.3" style="enable-background:new 0 0 63.3 63.3;" xml:space="preserve">
<style type="text/css">
	.st0{fill:#FFFFFF;}
	.st1{fill:#F21957;}
	.st2{fill:#553ADB;}
	.st3{opacity:0.2;enable-background:new    ;}
	.st4{fill:#EF0A26;}
</style>
<g id="Слой_3">
</g>
<g id="Слой_2_1_">
</g>
<rect x="36.6" y="32.4" transform="matrix(0.7071 -0.7071 0.7071 0.7071 -18.0999 43.7249)" class="st0" width="14.2" height="22.6"/>
<rect x="26.3" y="33.5" transform="matrix(0.7072 -0.707 0.707 0.7072 -14.4107 34.7832)" class="st1" width="17" height="2.5"/>
<rect x="53.7" y="50.3" transform="matrix(0.7072 -0.707 0.707 0.7072 -22.7092 54.8935)" class="st2" width="2.5" height="9.1"/>
<polygon class="st1" points="36.2,35.2 34.9,44.9 37.1,47.1 39.2,32.2 "/>
<polygon class="st1" points="43.8,33.7 41.3,51.3 43.5,53.5 46,35.9 "/>
<polygon class="st1" points="50.2,40.1 48.1,55.3 51,52.4 52.4,42.3 "/>
<polygon class="st2" points="48.6,54.8 46.7,56.7 49.4,63.3 51.7,62.3 "/>
<polygon class="st2" points="54.8,48.6 56.8,46.6 63.3,49.4 62.4,51.7 "/>
<g>
	<path class="st2" d="M30.3,37.5l-0.1-0.1c-4.3-4.3-11.3-4.3-15.7-0.1l-1.8-1.8c5.3-5.2,14.1-5.1,19.3,0.2L30.3,37.5z"/>
</g>
<g>
	<path class="st2" d="M35.8,32c-5.3-5.3-5.3-13.9-0.1-19.2l1.8,1.8c-4.3,4.3-4.3,11.4,0.1,15.7L35.8,32z"/>
</g>
<g>
	<rect x="23.9" y="12.7" transform="matrix(0.707 -0.7072 0.7072 0.707 -10.3988 25.1455)" class="st2" width="2.5" height="24.8"/>
</g>
<polygon class="st0" points="34.1,6.6 38.4,8.1 42,5.3 42,9.9 45.7,12.5 41.3,13.9 40,18.2 37.4,14.5 32.8,14.6 35.5,10.9 "/>
<polygon class="st0" points="6.5,34.1 10.9,35.6 14.5,32.8 14.5,37.4 18.2,40 13.8,41.4 12.5,45.7 9.8,42 5.3,42.1 8,38.4 "/>
<polygon class="st1" points="8,35.5 10.9,36.5 13.4,34.7 13.3,37.7 15.9,39.5 12.9,40.5 12,43.4 10.2,40.9 7.1,40.9 9,38.4 "/>
<polygon class="st3" points="12.8,40.7 12.9,40.5 15.9,39.5 13.3,37.7 13.4,34.7 10.9,36.5 8,35.5 8.2,36.1 "/>
<polygon class="st1" points="35.5,8.1 38.4,9 40.8,7.2 40.8,10.3 43.3,12 40.4,12.9 39.5,15.8 37.7,13.3 34.7,13.4 36.5,10.9 "/>
<polygon class="st3" points="40.4,13 40.4,12.9 43.3,12 40.8,10.3 40.8,7.2 38.4,9 35.5,8.1 35.6,8.2 "/>
<polygon class="st2" points="24.5,0.6 26.1,1.2 27.6,0.1 27.5,1.9 29,2.9 27.3,3.4 26.8,5.1 25.7,3.7 24,3.7 25,2.3 "/>
<polygon class="st4" points="10.6,0 11.4,1.1 12.7,1 11.9,2.1 12.3,3.3 11.1,2.9 10.1,3.7 10.1,2.4 9,1.6 10.3,1.2 "/>
<polygon class="st4" points="26.9,8 27.6,9.1 28.9,9 28.2,10.1 28.6,11.3 27.4,10.9 26.3,11.7 26.3,10.4 25.3,9.6 26.5,9.2 "/>
<polygon class="st4" points="37.5,2.9 38.3,3.9 39.6,3.9 38.8,5 39.2,6.2 38,5.8 37,6.6 37,5.3 35.9,4.5 37.1,4.1 "/>
<polygon class="st4" points="44.9,15.8 45.7,16.8 47,16.8 46.2,17.8 46.6,19.1 45.4,18.6 44.4,19.4 44.4,18.1 43.3,17.4 44.5,17 "/>
<polygon class="st4" points="9.2,26.8 10.5,26.5 11,25.3 11.7,26.4 13,26.6 12.1,27.5 12.4,28.8 11.2,28.2 10.1,28.9 10.2,27.6 "/>
<polygon class="st4" points="0.1,10.9 1.4,10.7 1.9,9.5 2.6,10.6 3.9,10.7 3,11.7 3.3,12.9 2.1,12.4 1,13.1 1.1,11.8 "/>
<polygon class="st4" points="2.8,37.1 4.1,36.9 4.6,35.7 5.2,36.8 6.5,36.9 5.7,37.9 6,39.2 4.8,38.6 3.7,39.3 3.8,38 "/>
<polygon class="st4" points="16.4,44 17.7,43.8 18.2,42.6 18.8,43.7 20.1,43.8 19.2,44.8 19.5,46 18.4,45.5 17.2,46.2 17.4,44.9 "/>
<polygon class="st2" points="25.4,17.2 27.1,17.7 28.5,16.7 28.5,18.4 30,19.5 28.3,20 27.7,21.7 26.7,20.2 24.9,20.3 26,18.8 "/>
<polygon class="st2" points="17.2,25.4 18.9,25.9 20.3,24.9 20.3,26.7 21.8,27.7 20.1,28.2 19.5,29.9 18.5,28.5 16.7,28.5 
	17.8,27.1 "/>
<polygon class="st2" points="0.5,25.4 2.2,26 3.6,24.9 3.6,26.7 5,27.7 3.3,28.2 2.8,29.9 1.8,28.5 0,28.5 1.1,27.1 "/>
<polygon class="st2" points="22.8,42 24.5,42.6 25.9,41.5 25.9,43.3 27.4,44.3 25.7,44.9 25.1,46.6 24.1,45.1 22.3,45.1 23.4,43.7 
	"/>
<polygon class="st2" points="41.5,23.3 43.2,23.9 44.6,22.8 44.6,24.6 46.1,25.6 44.4,26.2 43.8,27.9 42.8,26.4 41,26.4 42.1,25 "/>
<polygon class="st0" points="4,4 11.7,6.6 18.1,1.7 18,9.8 24.6,14.4 16.9,16.8 14.5,24.5 9.9,17.9 1.8,18.1 6.6,11.6 "/>
<polygon class="st1" points="6.2,6.1 11.7,8 16.4,4.5 16.3,10.3 21,13.7 15.5,15.4 13.8,21 10.4,16.2 4.6,16.3 8.1,11.6 "/>
<polygon class="st3" points="15.5,15.4 21,13.7 16.3,10.3 16.4,4.5 11.7,8 6.2,6.1 "/>
<rect x="42.7" y="29.8" transform="matrix(0.7071 -0.7071 0.7071 0.7071 -15.5387 44.7178)" class="st3" width="7.1" height="22.6"/>
</svg>
